<?xml version="1.0" encoding="UTF-8"?>
<svg xmlns="http://www.w3.org/2000/svg" xmlns:xlink="http://www.w3.org/1999/xlink" width="300px" height="300px" viewBox="0 0 300 300" version="1.1">
<defs>
<clipPath id="clip1">
  <path d="M 0.015625 0.015625 L 300 0.015625 L 300 300 L 0.015625 300 Z M 0.015625 0.015625 "/>
</clipPath>
<clipPath id="clip2">
  <path d="M 81.390625 66.742188 L 218.636719 66.742188 L 218.636719 233.28125 L 81.390625 233.28125 Z M 81.390625 66.742188 "/>
</clipPath>
<clipPath id="clip3">
  <path d="M 102.855469 88.210938 L 197.167969 88.210938 L 197.167969 197.800781 L 102.855469 197.800781 Z M 102.855469 88.210938 "/>
</clipPath>
<clipPath id="clip4">
  <path d="M 102.855469 204.957031 L 197.167969 204.957031 L 197.167969 211.820312 L 102.855469 211.820312 Z M 102.855469 204.957031 "/>
</clipPath>
</defs>
<g id="surface1">
<g clip-path="url(#clip1)" clip-rule="nonzero">
<path style="fill-rule:nonzero;fill:rgb(100%,100%,100%);fill-opacity:1;stroke-width:1;stroke-linecap:butt;stroke-linejoin:miter;stroke:rgb(100%,100%,100%);stroke-opacity:1;stroke-miterlimit:4;" d="M -0.00000000000000705 146.51526 C -0.00000000000000705 65.596901 65.596901 -0.00000000000000216 146.51526 -0.00000000000000216 C 227.429805 -0.00000000000000216 293.026706 65.596901 293.026706 146.51526 C 293.026706 227.429805 227.429805 293.026706 146.51526 293.026706 C 65.596901 293.026706 -0.00000000000000705 227.429805 -0.00000000000000705 146.51526 Z M 146.51526 290.356133 C 225.957174 290.356133 290.356133 225.957174 290.356133 146.51526 C 290.356133 67.069531 225.957174 2.670573 146.51526 2.670573 C 67.069531 2.670573 2.670573 67.069531 2.670573 146.51526 C 2.670573 225.957174 67.069531 290.356133 146.51526 290.356133 Z M 146.51526 290.356133 " transform="matrix(1.023891,0,0,1.023891,0.000000000000007218,0.000000000000002212)"/>
</g>
<path style=" stroke:none;fill-rule:nonzero;fill:rgb(100%,100%,100%);fill-opacity:1;" d="M 294.027344 150.015625 C 294.027344 70.476562 229.550781 6 150.015625 6 C 70.476562 6 6 70.476562 6 150.015625 C 6 229.550781 70.476562 294.027344 150.015625 294.027344 C 229.550781 294.027344 294.027344 229.550781 294.027344 150.015625 Z M 294.027344 150.015625 "/>
<g clip-path="url(#clip2)" clip-rule="nonzero">
<path style=" stroke:none;fill-rule:nonzero;fill:rgb(100%,100%,100%);fill-opacity:1;" d="M 81.390625 233.285156 L 81.390625 66.742188 L 218.636719 66.742188 L 218.636719 233.285156 Z M 81.390625 233.285156 "/>
</g>
<path style=" stroke:none;fill-rule:nonzero;fill:rgb(38.039216%,46.666667%,49.803922%);fill-opacity:1;" d="M 84.96875 229.707031 L 84.96875 70.320312 L 215.058594 70.320312 L 215.058594 229.707031 Z M 84.96875 229.707031 "/>
<path style=" stroke:none;fill-rule:nonzero;fill:rgb(100%,100%,100%);fill-opacity:1;" d="M 92.125 222.550781 L 92.125 77.476562 L 207.902344 77.476562 L 207.902344 222.550781 Z M 92.125 222.550781 "/>
<g clip-path="url(#clip3)" clip-rule="nonzero">
<path style=" stroke:none;fill-rule:nonzero;fill:rgb(38.039216%,46.666667%,49.803922%);fill-opacity:1;" d="M 102.855469 197.800781 L 148.378906 88.210938 L 151.339844 88.210938 L 197.171875 197.800781 L 187.195312 197.800781 L 172.074219 162.414062 L 127.644531 162.414062 L 112.835938 197.800781 Z M 168.332031 153.683594 L 153.675781 117.207031 C 152.015625 113.046875 150.714844 108.996094 149.78125 105.046875 C 148.53125 109.929688 147.285156 113.984375 146.039062 117.207031 L 131.386719 153.683594 Z M 168.332031 153.683594 "/>
</g>
<g clip-path="url(#clip4)" clip-rule="nonzero">
<path style=" stroke:none;fill-rule:nonzero;fill:rgb(38.039216%,46.666667%,49.803922%);fill-opacity:1;" d="M 104.714844 205.574219 C 104.980469 205.574219 105.214844 205.625 105.425781 205.71875 C 105.632812 205.816406 105.828125 205.953125 106.007812 206.132812 L 105.542969 206.613281 C 105.40625 206.496094 105.28125 206.410156 105.160156 206.359375 C 105.039062 206.308594 104.902344 206.28125 104.753906 206.28125 C 104.464844 206.28125 104.238281 206.410156 104.082031 206.667969 C 103.925781 206.925781 103.84375 207.375 103.84375 208.011719 C 103.84375 208.460938 103.875 208.8125 103.929688 209.0625 C 103.984375 209.316406 104.066406 209.492188 104.175781 209.589844 C 104.285156 209.6875 104.425781 209.738281 104.605469 209.738281 C 104.785156 209.738281 104.960938 209.683594 105.125 209.574219 L 105.125 208.382812 L 104.632812 208.382812 L 104.539062 207.695312 L 106.019531 207.695312 L 106.019531 209.980469 C 105.824219 210.128906 105.601562 210.242188 105.359375 210.324219 C 105.113281 210.402344 104.867188 210.445312 104.621094 210.445312 C 104.027344 210.445312 103.585938 210.246094 103.296875 209.855469 C 103.007812 209.460938 102.863281 208.847656 102.863281 208.007812 C 102.863281 207.46875 102.941406 207.015625 103.105469 206.652344 C 103.265625 206.289062 103.488281 206.019531 103.765625 205.839844 C 104.042969 205.664062 104.359375 205.574219 104.714844 205.574219 Z M 108.996094 209.441406 C 108.996094 209.558594 109.011719 209.644531 109.039062 209.695312 C 109.070312 209.75 109.121094 209.796875 109.191406 209.832031 L 109.003906 210.4375 C 108.816406 210.414062 108.664062 210.367188 108.546875 210.292969 C 108.429688 210.21875 108.34375 210.101562 108.285156 209.945312 C 108.078125 210.28125 107.785156 210.449219 107.40625 210.449219 C 107.113281 210.449219 106.875 210.351562 106.699219 210.148438 C 106.527344 209.945312 106.4375 209.679688 106.4375 209.347656 C 106.4375 208.957031 106.558594 208.660156 106.796875 208.453125 C 107.039062 208.25 107.390625 208.148438 107.851562 208.148438 L 108.101562 208.148438 L 108.101562 207.933594 C 108.101562 207.710938 108.066406 207.558594 107.992188 207.46875 C 107.921875 207.382812 107.796875 207.339844 107.625 207.339844 C 107.421875 207.339844 107.164062 207.398438 106.847656 207.515625 L 106.640625 206.929688 C 106.824219 206.84375 107.015625 206.777344 107.21875 206.734375 C 107.421875 206.6875 107.613281 206.667969 107.792969 206.667969 C 108.59375 206.667969 108.996094 207.074219 108.996094 207.886719 Z M 107.671875 209.792969 C 107.859375 209.792969 108.003906 209.660156 108.101562 209.402344 L 108.101562 208.679688 L 107.941406 208.679688 C 107.734375 208.679688 107.582031 208.726562 107.484375 208.824219 C 107.390625 208.921875 107.339844 209.070312 107.339844 209.273438 C 107.339844 209.441406 107.371094 209.570312 107.429688 209.660156 C 107.488281 209.746094 107.566406 209.792969 107.671875 209.792969 Z M 112.957031 206.667969 C 113.191406 206.667969 113.378906 206.757812 113.523438 206.945312 C 113.664062 207.132812 113.738281 207.378906 113.738281 207.683594 L 113.738281 210.34375 L 112.84375 210.34375 L 112.84375 207.777344 C 112.84375 207.628906 112.824219 207.523438 112.785156 207.460938 C 112.746094 207.398438 112.691406 207.367188 112.621094 207.367188 C 112.464844 207.367188 112.3125 207.515625 112.167969 207.8125 L 112.167969 210.34375 L 111.277344 210.34375 L 111.277344 207.777344 C 111.277344 207.503906 111.203125 207.367188 111.050781 207.367188 C 110.890625 207.367188 110.734375 207.515625 110.59375 207.8125 L 110.59375 210.34375 L 109.695312 210.34375 L 109.695312 206.773438 L 110.5 206.773438 L 110.554688 207.226562 C 110.664062 207.046875 110.789062 206.90625 110.925781 206.808594 C 111.0625 206.714844 111.21875 206.667969 111.394531 206.667969 C 111.5625 206.667969 111.703125 206.714844 111.820312 206.816406 C 111.941406 206.917969 112.03125 207.0625 112.09375 207.253906 C 112.332031 206.863281 112.621094 206.667969 112.957031 206.667969 Z M 114.402344 206.773438 L 115.320312 206.773438 L 115.320312 210.34375 L 114.402344 210.34375 Z M 114.863281 204.957031 C 115.019531 204.957031 115.148438 205.007812 115.246094 205.109375 C 115.34375 205.214844 115.394531 205.34375 115.394531 205.5 C 115.394531 205.652344 115.34375 205.78125 115.246094 205.882812 C 115.148438 205.984375 115.019531 206.035156 114.863281 206.035156 C 114.699219 206.035156 114.570312 205.984375 114.472656 205.882812 C 114.371094 205.78125 114.324219 205.652344 114.324219 205.5 C 114.324219 205.34375 114.371094 205.214844 114.472656 205.109375 C 114.570312 205.007812 114.699219 204.957031 114.863281 204.957031 Z M 117.757812 206.667969 C 118.011719 206.667969 118.214844 206.757812 118.363281 206.941406 C 118.511719 207.125 118.585938 207.375 118.585938 207.683594 L 118.585938 210.34375 L 117.667969 210.34375 L 117.667969 207.785156 C 117.667969 207.636719 117.648438 207.53125 117.609375 207.46875 C 117.570312 207.40625 117.507812 207.375 117.425781 207.375 C 117.265625 207.375 117.097656 207.535156 116.929688 207.859375 L 116.929688 210.34375 L 116.011719 210.34375 L 116.011719 206.773438 L 116.816406 206.773438 L 116.882812 207.226562 C 117 207.042969 117.125 206.902344 117.265625 206.808594 C 117.40625 206.714844 117.570312 206.667969 117.757812 206.667969 Z M 121.730469 206.28125 L 121.960938 206.960938 C 121.785156 207.050781 121.507812 207.097656 121.125 207.097656 C 121.316406 207.191406 121.460938 207.3125 121.550781 207.457031 C 121.644531 207.601562 121.691406 207.789062 121.691406 208.011719 C 121.691406 208.371094 121.578125 208.660156 121.351562 208.882812 C 121.128906 209.101562 120.820312 209.210938 120.429688 209.210938 C 120.328125 209.210938 120.21875 209.195312 120.101562 209.164062 C 120.023438 209.21875 119.988281 209.300781 119.988281 209.414062 C 119.988281 209.5 120.007812 209.5625 120.054688 209.605469 C 120.105469 209.648438 120.195312 209.667969 120.328125 209.667969 L 120.695312 209.667969 C 121.066406 209.667969 121.359375 209.761719 121.574219 209.949219 C 121.792969 210.136719 121.898438 210.378906 121.898438 210.671875 C 121.898438 211.019531 121.765625 211.296875 121.496094 211.503906 C 121.226562 211.714844 120.84375 211.816406 120.351562 211.816406 C 119.816406 211.816406 119.445312 211.722656 119.234375 211.53125 C 119.027344 211.339844 118.921875 211.0625 118.921875 210.695312 L 119.742188 210.695312 C 119.742188 210.875 119.785156 211.003906 119.867188 211.082031 C 119.953125 211.160156 120.113281 211.199219 120.355469 211.199219 C 120.582031 211.199219 120.742188 211.15625 120.835938 211.078125 C 120.933594 210.996094 120.984375 210.882812 120.984375 210.734375 C 120.984375 210.589844 120.945312 210.484375 120.863281 210.417969 C 120.785156 210.351562 120.664062 210.316406 120.5 210.316406 L 120.230469 210.316406 C 119.882812 210.316406 119.628906 210.253906 119.46875 210.128906 C 119.3125 210.003906 119.230469 209.832031 119.230469 209.621094 C 119.230469 209.386719 119.355469 209.167969 119.601562 208.976562 C 119.414062 208.859375 119.277344 208.71875 119.191406 208.558594 C 119.105469 208.398438 119.0625 208.199219 119.0625 207.960938 C 119.0625 207.5625 119.183594 207.253906 119.421875 207.023438 C 119.660156 206.792969 119.980469 206.679688 120.390625 206.679688 C 120.683594 206.679688 120.921875 206.644531 121.109375 206.578125 C 121.300781 206.511719 121.507812 206.414062 121.730469 206.28125 Z M 120.398438 207.285156 C 120.253906 207.285156 120.144531 207.335938 120.070312 207.441406 C 119.996094 207.542969 119.960938 207.710938 119.960938 207.945312 C 119.960938 208.164062 119.996094 208.332031 120.070312 208.445312 C 120.144531 208.5625 120.25 208.621094 120.390625 208.621094 C 120.535156 208.621094 120.640625 208.566406 120.710938 208.464844 C 120.78125 208.359375 120.816406 208.183594 120.816406 207.933594 C 120.816406 207.707031 120.78125 207.542969 120.714844 207.441406 C 120.644531 207.335938 120.539062 207.285156 120.398438 207.285156 Z M 122.652344 209.339844 C 122.804688 209.339844 122.929688 209.390625 123.027344 209.496094 C 123.125 209.597656 123.171875 209.726562 123.171875 209.886719 C 123.171875 209.957031 123.160156 210.03125 123.132812 210.109375 C 123.109375 210.1875 123.0625 210.328125 122.988281 210.53125 L 122.632812 211.507812 L 122.132812 211.507812 L 122.382812 210.355469 C 122.214844 210.234375 122.128906 210.078125 122.128906 209.886719 C 122.128906 209.726562 122.175781 209.597656 122.277344 209.496094 C 122.375 209.390625 122.5 209.339844 122.652344 209.339844 Z M 124.699219 205.683594 L 127.65625 205.683594 L 127.554688 206.417969 L 126.625 206.417969 L 126.625 210.34375 L 125.675781 210.34375 L 125.675781 206.417969 L 124.699219 206.417969 Z M 129.640625 206.679688 C 129.746094 206.679688 129.835938 206.695312 129.917969 206.726562 L 129.769531 207.609375 C 129.6875 207.582031 129.605469 207.570312 129.519531 207.570312 C 129.351562 207.570312 129.21875 207.640625 129.125 207.78125 C 129.027344 207.921875 128.957031 208.132812 128.90625 208.410156 L 128.90625 210.34375 L 127.992188 210.34375 L 127.992188 206.773438 L 128.792969 206.773438 L 128.859375 207.378906 C 129.027344 206.914062 129.289062 206.679688 129.640625 206.679688 Z M 132.605469 209.441406 C 132.605469 209.558594 132.617188 209.644531 132.648438 209.695312 C 132.675781 209.75 132.726562 209.796875 132.800781 209.832031 L 132.609375 210.4375 C 132.421875 210.414062 132.269531 210.367188 132.152344 210.292969 C 132.035156 210.21875 131.949219 210.101562 131.890625 209.945312 C 131.683594 210.28125 131.390625 210.449219 131.015625 210.449219 C 130.71875 210.449219 130.484375 210.351562 130.308594 210.148438 C 130.132812 209.945312 130.042969 209.679688 130.042969 209.347656 C 130.042969 208.957031 130.164062 208.660156 130.40625 208.453125 C 130.644531 208.25 130.996094 208.148438 131.457031 208.148438 L 131.707031 208.148438 L 131.707031 207.933594 C 131.707031 207.710938 131.671875 207.558594 131.601562 207.46875 C 131.527344 207.382812 131.40625 207.339844 131.230469 207.339844 C 131.027344 207.339844 130.769531 207.398438 130.457031 207.515625 L 130.246094 206.929688 C 130.429688 206.84375 130.625 206.777344 130.824219 206.734375 C 131.027344 206.6875 131.21875 206.667969 131.398438 206.667969 C 132.203125 206.667969 132.605469 207.074219 132.605469 207.886719 Z M 131.277344 209.792969 C 131.464844 209.792969 131.609375 209.660156 131.707031 209.402344 L 131.707031 208.679688 L 131.546875 208.679688 C 131.339844 208.679688 131.1875 208.726562 131.09375 208.824219 C 130.996094 208.921875 130.949219 209.070312 130.949219 209.273438 C 130.949219 209.441406 130.976562 209.570312 131.035156 209.660156 C 131.09375 209.746094 131.171875 209.792969 131.277344 209.792969 Z M 135.054688 205.253906 L 135.972656 205.351562 L 135.972656 210.34375 L 135.15625 210.34375 L 135.117188 209.945312 C 134.90625 210.28125 134.632812 210.449219 134.300781 210.449219 C 133.933594 210.449219 133.652344 210.285156 133.457031 209.957031 C 133.261719 209.625 133.164062 209.160156 133.164062 208.558594 C 133.164062 208.175781 133.214844 207.84375 133.316406 207.558594 C 133.414062 207.273438 133.558594 207.054688 133.742188 206.898438 C 133.925781 206.742188 134.132812 206.667969 134.367188 206.667969 C 134.644531 206.667969 134.875 206.78125 135.054688 207.015625 Z M 134.578125 209.769531 C 134.753906 209.769531 134.910156 209.640625 135.054688 209.378906 L 135.054688 207.675781 C 134.988281 207.570312 134.917969 207.488281 134.847656 207.433594 C 134.773438 207.378906 134.695312 207.351562 134.609375 207.351562 C 134.277344 207.351562 134.113281 207.753906 134.113281 208.558594 C 134.113281 209.003906 134.152344 209.316406 134.234375 209.496094 C 134.3125 209.679688 134.429688 209.769531 134.578125 209.769531 Z M 136.65625 206.773438 L 137.574219 206.773438 L 137.574219 210.34375 L 136.65625 210.34375 Z M 137.117188 204.957031 C 137.273438 204.957031 137.402344 205.007812 137.5 205.109375 C 137.597656 205.214844 137.648438 205.34375 137.648438 205.5 C 137.648438 205.652344 137.597656 205.78125 137.5 205.882812 C 137.402344 205.984375 137.273438 206.035156 137.117188 206.035156 C 136.953125 206.035156 136.824219 205.984375 136.726562 205.882812 C 136.625 205.78125 136.578125 205.652344 136.578125 205.5 C 136.578125 205.34375 136.625 205.214844 136.726562 205.109375 C 136.824219 205.007812 136.953125 204.957031 137.117188 204.957031 Z M 140.011719 206.667969 C 140.265625 206.667969 140.46875 206.757812 140.617188 206.941406 C 140.765625 207.125 140.839844 207.375 140.839844 207.683594 L 140.839844 210.34375 L 139.925781 210.34375 L 139.925781 207.785156 C 139.925781 207.636719 139.902344 207.53125 139.863281 207.46875 C 139.824219 207.40625 139.761719 207.375 139.679688 207.375 C 139.519531 207.375 139.355469 207.535156 139.183594 207.859375 L 139.183594 210.34375 L 138.265625 210.34375 L 138.265625 206.773438 L 139.070312 206.773438 L 139.136719 207.226562 C 139.253906 207.042969 139.378906 206.902344 139.519531 206.808594 C 139.660156 206.714844 139.824219 206.667969 140.011719 206.667969 Z M 143.984375 206.28125 L 144.214844 206.960938 C 144.039062 207.050781 143.761719 207.097656 143.378906 207.097656 C 143.570312 207.191406 143.714844 207.3125 143.804688 207.457031 C 143.898438 207.601562 143.945312 207.789062 143.945312 208.011719 C 143.945312 208.371094 143.832031 208.660156 143.609375 208.882812 C 143.382812 209.101562 143.074219 209.210938 142.683594 209.210938 C 142.582031 209.210938 142.472656 209.195312 142.355469 209.164062 C 142.277344 209.21875 142.242188 209.300781 142.242188 209.414062 C 142.242188 209.5 142.265625 209.5625 142.3125 209.605469 C 142.359375 209.648438 142.449219 209.667969 142.582031 209.667969 L 142.949219 209.667969 C 143.320312 209.667969 143.613281 209.761719 143.828125 209.949219 C 144.046875 210.136719 144.152344 210.378906 144.152344 210.671875 C 144.152344 211.019531 144.019531 211.296875 143.75 211.503906 C 143.480469 211.714844 143.097656 211.816406 142.605469 211.816406 C 142.070312 211.816406 141.699219 211.722656 141.488281 211.53125 C 141.28125 211.339844 141.175781 211.0625 141.175781 210.695312 L 142 210.695312 C 142 210.875 142.039062 211.003906 142.121094 211.082031 C 142.207031 211.160156 142.367188 211.199219 142.609375 211.199219 C 142.835938 211.199219 142.996094 211.15625 143.089844 211.078125 C 143.1875 210.996094 143.238281 210.882812 143.238281 210.734375 C 143.238281 210.589844 143.199219 210.484375 143.117188 210.417969 C 143.039062 210.351562 142.917969 210.316406 142.753906 210.316406 L 142.484375 210.316406 C 142.136719 210.316406 141.882812 210.253906 141.726562 210.128906 C 141.566406 210.003906 141.484375 209.832031 141.484375 209.621094 C 141.484375 209.386719 141.609375 209.167969 141.855469 208.976562 C 141.667969 208.859375 141.53125 208.71875 141.445312 208.558594 C 141.359375 208.398438 141.316406 208.199219 141.316406 207.960938 C 141.316406 207.5625 141.4375 207.253906 141.675781 207.023438 C 141.914062 206.792969 142.234375 206.679688 142.644531 206.679688 C 142.9375 206.679688 143.175781 206.644531 143.363281 206.578125 C 143.554688 206.511719 143.761719 206.414062 143.984375 206.28125 Z M 142.652344 207.285156 C 142.507812 207.285156 142.398438 207.335938 142.324219 207.441406 C 142.25 207.542969 142.214844 207.710938 142.214844 207.945312 C 142.214844 208.164062 142.25 208.332031 142.324219 208.445312 C 142.398438 208.5625 142.503906 208.621094 142.644531 208.621094 C 142.789062 208.621094 142.894531 208.566406 142.964844 208.464844 C 143.035156 208.359375 143.070312 208.183594 143.070312 207.933594 C 143.070312 207.707031 143.035156 207.542969 142.96875 207.441406 C 142.902344 207.335938 142.796875 207.285156 142.652344 207.285156 Z M 147.257812 205.574219 C 147.628906 205.574219 147.921875 205.675781 148.136719 205.875 C 148.355469 206.074219 148.460938 206.335938 148.460938 206.660156 C 148.460938 206.921875 148.398438 207.148438 148.273438 207.339844 C 148.148438 207.53125 147.957031 207.722656 147.707031 207.914062 L 148.480469 208.863281 C 148.585938 208.5625 148.671875 208.230469 148.738281 207.863281 L 149.464844 208.046875 C 149.332031 208.550781 149.160156 208.980469 148.960938 209.332031 L 149.640625 210.046875 L 148.894531 210.449219 L 148.429688 209.886719 C 148.25 210.078125 148.058594 210.222656 147.855469 210.3125 C 147.652344 210.40625 147.429688 210.449219 147.1875 210.449219 C 146.925781 210.449219 146.691406 210.394531 146.484375 210.285156 C 146.28125 210.175781 146.121094 210.023438 146.007812 209.828125 C 145.894531 209.632812 145.835938 209.410156 145.835938 209.15625 C 145.835938 208.882812 145.894531 208.648438 146.015625 208.445312 C 146.136719 208.246094 146.335938 208.042969 146.609375 207.839844 C 146.398438 207.617188 146.253906 207.421875 146.171875 207.253906 C 146.089844 207.085938 146.050781 206.894531 146.050781 206.679688 C 146.050781 206.367188 146.15625 206.101562 146.363281 205.890625 C 146.574219 205.679688 146.871094 205.574219 147.257812 205.574219 Z M 147.261719 206.179688 C 147.035156 206.179688 146.917969 206.34375 146.917969 206.671875 C 146.917969 206.824219 146.941406 206.957031 146.988281 207.066406 C 147.03125 207.175781 147.113281 207.3125 147.230469 207.46875 C 147.363281 207.324219 147.460938 207.195312 147.515625 207.085938 C 147.570312 206.976562 147.601562 206.839844 147.601562 206.679688 C 147.601562 206.347656 147.488281 206.179688 147.261719 206.179688 Z M 147.101562 208.34375 C 146.988281 208.449219 146.910156 208.566406 146.859375 208.6875 C 146.808594 208.808594 146.785156 208.953125 146.785156 209.117188 C 146.785156 209.332031 146.835938 209.496094 146.9375 209.613281 C 147.039062 209.726562 147.175781 209.785156 147.351562 209.785156 C 147.589844 209.785156 147.800781 209.667969 147.992188 209.441406 Z M 152.980469 205.574219 C 153.222656 205.574219 153.4375 205.617188 153.628906 205.699219 C 153.820312 205.78125 154.003906 205.90625 154.179688 206.074219 L 153.726562 206.605469 C 153.617188 206.503906 153.503906 206.425781 153.394531 206.371094 C 153.285156 206.320312 153.167969 206.296875 153.039062 206.296875 C 152.785156 206.296875 152.585938 206.425781 152.441406 206.6875 C 152.296875 206.953125 152.226562 207.390625 152.226562 208.007812 C 152.226562 208.609375 152.296875 209.042969 152.441406 209.304688 C 152.585938 209.570312 152.789062 209.703125 153.046875 209.703125 C 153.1875 209.703125 153.308594 209.675781 153.414062 209.617188 C 153.519531 209.5625 153.640625 209.476562 153.773438 209.359375 L 154.21875 209.878906 C 153.863281 210.261719 153.453125 210.449219 152.980469 210.449219 C 152.445312 210.449219 152.023438 210.246094 151.707031 209.835938 C 151.394531 209.425781 151.234375 208.816406 151.234375 208.007812 C 151.234375 207.472656 151.308594 207.023438 151.457031 206.660156 C 151.605469 206.296875 151.8125 206.023438 152.074219 205.84375 C 152.335938 205.664062 152.640625 205.574219 152.980469 205.574219 Z M 155.910156 206.667969 C 156.367188 206.667969 156.722656 206.824219 156.980469 207.144531 C 157.234375 207.464844 157.363281 207.933594 157.363281 208.558594 C 157.363281 209.15625 157.234375 209.621094 156.976562 209.953125 C 156.71875 210.285156 156.363281 210.449219 155.910156 210.449219 C 155.453125 210.449219 155.097656 210.289062 154.839844 209.964844 C 154.582031 209.644531 154.453125 209.171875 154.453125 208.558594 C 154.453125 207.949219 154.582031 207.480469 154.835938 207.152344 C 155.09375 206.828125 155.449219 206.667969 155.910156 206.667969 Z M 155.910156 207.359375 C 155.734375 207.359375 155.605469 207.449219 155.523438 207.632812 C 155.445312 207.8125 155.402344 208.125 155.402344 208.558594 C 155.402344 209 155.445312 209.308594 155.523438 209.492188 C 155.605469 209.671875 155.734375 209.765625 155.910156 209.765625 C 156.082031 209.765625 156.210938 209.671875 156.292969 209.488281 C 156.375 209.304688 156.414062 208.996094 156.414062 208.558594 C 156.414062 208.117188 156.375 207.808594 156.292969 207.628906 C 156.210938 207.449219 156.082031 207.359375 155.910156 207.359375 Z M 161.167969 206.667969 C 161.402344 206.667969 161.589844 206.757812 161.734375 206.945312 C 161.878906 207.132812 161.949219 207.378906 161.949219 207.683594 L 161.949219 210.34375 L 161.054688 210.34375 L 161.054688 207.777344 C 161.054688 207.628906 161.035156 207.523438 160.996094 207.460938 C 160.957031 207.398438 160.902344 207.367188 160.832031 207.367188 C 160.675781 207.367188 160.523438 207.515625 160.378906 207.8125 L 160.378906 210.34375 L 159.492188 210.34375 L 159.492188 207.777344 C 159.492188 207.503906 159.414062 207.367188 159.261719 207.367188 C 159.101562 207.367188 158.949219 207.515625 158.804688 207.8125 L 158.804688 210.34375 L 157.910156 210.34375 L 157.910156 206.773438 L 158.710938 206.773438 L 158.765625 207.226562 C 158.875 207.046875 159 206.90625 159.136719 206.808594 C 159.273438 206.714844 159.429688 206.667969 159.605469 206.667969 C 159.773438 206.667969 159.914062 206.714844 160.035156 206.816406 C 160.152344 206.917969 160.242188 207.0625 160.304688 207.253906 C 160.542969 206.863281 160.832031 206.667969 161.167969 206.667969 Z M 164.332031 206.667969 C 164.683594 206.667969 164.949219 206.828125 165.132812 207.152344 C 165.320312 207.472656 165.410156 207.941406 165.410156 208.550781 C 165.410156 208.9375 165.363281 209.273438 165.269531 209.558594 C 165.175781 209.84375 165.039062 210.0625 164.863281 210.21875 C 164.691406 210.375 164.484375 210.449219 164.246094 210.449219 C 163.957031 210.449219 163.71875 210.324219 163.53125 210.074219 L 163.53125 211.71875 L 162.617188 211.816406 L 162.617188 206.773438 L 163.429688 206.773438 L 163.472656 207.179688 C 163.582031 207.003906 163.710938 206.875 163.851562 206.789062 C 163.992188 206.707031 164.152344 206.667969 164.332031 206.667969 Z M 163.984375 209.765625 C 164.304688 209.765625 164.46875 209.363281 164.46875 208.558594 C 164.46875 208.105469 164.433594 207.792969 164.359375 207.617188 C 164.289062 207.441406 164.179688 207.351562 164.035156 207.351562 C 163.851562 207.351562 163.683594 207.492188 163.53125 207.769531 L 163.53125 209.449219 C 163.660156 209.660156 163.8125 209.765625 163.984375 209.765625 Z M 168.476562 206.773438 L 168.476562 210.34375 L 167.671875 210.34375 L 167.632812 209.914062 C 167.414062 210.273438 167.128906 210.449219 166.777344 210.449219 C 166.515625 210.449219 166.3125 210.359375 166.160156 210.171875 C 166.011719 209.984375 165.9375 209.742188 165.9375 209.441406 L 165.9375 206.773438 L 166.851562 206.773438 L 166.851562 209.394531 C 166.851562 209.640625 166.933594 209.765625 167.101562 209.765625 C 167.269531 209.765625 167.425781 209.621094 167.558594 209.332031 L 167.558594 206.773438 Z M 170.730469 209.617188 L 171.039062 210.183594 C 170.925781 210.273438 170.800781 210.339844 170.660156 210.382812 C 170.515625 210.429688 170.375 210.449219 170.230469 210.449219 C 169.902344 210.449219 169.65625 210.359375 169.488281 210.171875 C 169.324219 209.984375 169.242188 209.734375 169.242188 209.414062 L 169.242188 207.425781 L 168.84375 207.425781 L 168.84375 206.773438 L 169.242188 206.773438 L 169.242188 205.992188 L 170.15625 205.878906 L 170.15625 206.773438 L 170.824219 206.773438 L 170.734375 207.425781 L 170.15625 207.425781 L 170.15625 209.40625 C 170.15625 209.613281 170.242188 209.71875 170.414062 209.71875 C 170.472656 209.71875 170.523438 209.707031 170.566406 209.691406 C 170.613281 209.675781 170.667969 209.652344 170.730469 209.617188 Z M 173.953125 208.476562 C 173.953125 208.527344 173.949219 208.644531 173.933594 208.835938 L 172.109375 208.835938 C 172.128906 209.183594 172.191406 209.425781 172.296875 209.5625 C 172.402344 209.695312 172.546875 209.765625 172.734375 209.765625 C 172.867188 209.765625 172.988281 209.742188 173.101562 209.691406 C 173.210938 209.644531 173.332031 209.574219 173.464844 209.476562 L 173.839844 209.980469 C 173.515625 210.292969 173.128906 210.449219 172.675781 210.449219 C 172.195312 210.449219 171.828125 210.289062 171.570312 209.960938 C 171.316406 209.632812 171.1875 209.171875 171.1875 208.585938 C 171.1875 207.996094 171.308594 207.53125 171.550781 207.183594 C 171.792969 206.839844 172.140625 206.667969 172.59375 206.667969 C 173.019531 206.667969 173.355469 206.820312 173.59375 207.128906 C 173.835938 207.433594 173.953125 207.886719 173.953125 208.476562 Z M 173.066406 208.269531 L 173.066406 208.214844 C 173.066406 207.890625 173.03125 207.65625 172.957031 207.511719 C 172.886719 207.367188 172.765625 207.292969 172.601562 207.292969 C 172.449219 207.292969 172.332031 207.363281 172.253906 207.507812 C 172.175781 207.652344 172.128906 207.90625 172.109375 208.269531 Z M 176.117188 206.679688 C 176.21875 206.679688 176.3125 206.695312 176.394531 206.726562 L 176.246094 207.609375 C 176.164062 207.582031 176.082031 207.570312 175.996094 207.570312 C 175.824219 207.570312 175.691406 207.640625 175.597656 207.78125 C 175.503906 207.921875 175.433594 208.132812 175.382812 208.410156 L 175.382812 210.34375 L 174.46875 210.34375 L 174.46875 206.773438 L 175.269531 206.773438 L 175.335938 207.378906 C 175.5 206.914062 175.761719 206.679688 176.117188 206.679688 Z M 179.265625 205.574219 C 179.546875 205.574219 179.792969 205.625 180.007812 205.722656 C 180.222656 205.824219 180.417969 205.96875 180.59375 206.160156 L 180.164062 206.660156 C 179.902344 206.414062 179.632812 206.289062 179.355469 206.289062 C 179.191406 206.289062 179.066406 206.335938 178.96875 206.433594 C 178.875 206.53125 178.828125 206.660156 178.828125 206.820312 C 178.828125 206.976562 178.882812 207.109375 178.984375 207.210938 C 179.085938 207.316406 179.28125 207.425781 179.570312 207.542969 C 179.832031 207.648438 180.039062 207.765625 180.199219 207.886719 C 180.359375 208.007812 180.484375 208.15625 180.570312 208.335938 C 180.65625 208.515625 180.703125 208.738281 180.703125 209.003906 C 180.703125 209.277344 180.636719 209.523438 180.511719 209.742188 C 180.386719 209.964844 180.207031 210.136719 179.972656 210.261719 C 179.742188 210.386719 179.46875 210.449219 179.160156 210.449219 C 178.839844 210.449219 178.5625 210.394531 178.328125 210.277344 C 178.09375 210.164062 177.878906 210.007812 177.691406 209.804688 L 178.15625 209.292969 C 178.3125 209.4375 178.46875 209.546875 178.617188 209.617188 C 178.769531 209.691406 178.929688 209.730469 179.097656 209.730469 C 179.296875 209.730469 179.449219 209.671875 179.554688 209.550781 C 179.660156 209.433594 179.710938 209.273438 179.710938 209.070312 C 179.710938 208.886719 179.660156 208.738281 179.5625 208.621094 C 179.464844 208.507812 179.285156 208.398438 179.023438 208.289062 C 178.601562 208.113281 178.300781 207.917969 178.121094 207.703125 C 177.941406 207.488281 177.851562 207.214844 177.851562 206.886719 C 177.851562 206.632812 177.914062 206.40625 178.035156 206.207031 C 178.15625 206.011719 178.324219 205.855469 178.539062 205.742188 C 178.753906 205.632812 178.996094 205.574219 179.265625 205.574219 Z M 182.519531 206.667969 C 182.902344 206.667969 183.234375 206.808594 183.515625 207.089844 L 183.132812 207.601562 C 182.9375 207.449219 182.753906 207.375 182.582031 207.375 C 182.386719 207.375 182.242188 207.464844 182.144531 207.644531 C 182.050781 207.828125 182 208.140625 182 208.578125 C 182 209.003906 182.050781 209.300781 182.148438 209.46875 C 182.25 209.640625 182.390625 209.722656 182.582031 209.722656 C 182.675781 209.722656 182.761719 209.707031 182.84375 209.671875 C 182.921875 209.640625 183.011719 209.585938 183.113281 209.507812 L 183.515625 210.035156 C 183.230469 210.3125 182.898438 210.449219 182.527344 210.449219 C 182.054688 210.449219 181.6875 210.292969 181.429688 209.980469 C 181.167969 209.664062 181.039062 209.199219 181.039062 208.585938 C 181.039062 208.191406 181.097656 207.847656 181.21875 207.558594 C 181.339844 207.269531 181.511719 207.046875 181.734375 206.894531 C 181.957031 206.742188 182.21875 206.667969 182.519531 206.667969 Z M 183.867188 206.773438 L 184.78125 206.773438 L 184.78125 210.34375 L 183.867188 210.34375 Z M 184.324219 204.957031 C 184.480469 204.957031 184.609375 205.007812 184.707031 205.109375 C 184.808594 205.214844 184.855469 205.34375 184.855469 205.5 C 184.855469 205.652344 184.808594 205.78125 184.707031 205.882812 C 184.609375 205.984375 184.480469 206.035156 184.324219 206.035156 C 184.164062 206.035156 184.03125 205.984375 183.933594 205.882812 C 183.835938 205.78125 183.785156 205.652344 183.785156 205.5 C 183.785156 205.34375 183.835938 205.214844 183.933594 205.109375 C 184.03125 205.007812 184.164062 204.957031 184.324219 204.957031 Z M 188.101562 208.476562 C 188.101562 208.527344 188.09375 208.644531 188.082031 208.835938 L 186.253906 208.835938 C 186.273438 209.183594 186.335938 209.425781 186.441406 209.5625 C 186.546875 209.695312 186.695312 209.765625 186.882812 209.765625 C 187.011719 209.765625 187.136719 209.742188 187.246094 209.691406 C 187.359375 209.644531 187.480469 209.574219 187.609375 209.476562 L 187.988281 209.980469 C 187.664062 210.292969 187.273438 210.449219 186.820312 210.449219 C 186.34375 210.449219 185.972656 210.289062 185.71875 209.960938 C 185.460938 209.632812 185.332031 209.171875 185.332031 208.585938 C 185.332031 207.996094 185.453125 207.53125 185.699219 207.183594 C 185.941406 206.839844 186.289062 206.667969 186.742188 206.667969 C 187.167969 206.667969 187.5 206.820312 187.742188 207.128906 C 187.980469 207.433594 188.101562 207.886719 188.101562 208.476562 Z M 187.214844 208.269531 L 187.214844 208.214844 C 187.214844 207.890625 187.175781 207.65625 187.105469 207.511719 C 187.03125 207.367188 186.914062 207.292969 186.746094 207.292969 C 186.59375 207.292969 186.480469 207.363281 186.402344 207.507812 C 186.324219 207.652344 186.273438 207.90625 186.253906 208.269531 Z M 190.355469 206.667969 C 190.613281 206.667969 190.816406 206.757812 190.964844 206.941406 C 191.109375 207.125 191.183594 207.375 191.183594 207.683594 L 191.183594 210.34375 L 190.269531 210.34375 L 190.269531 207.785156 C 190.269531 207.636719 190.25 207.53125 190.207031 207.46875 C 190.167969 207.40625 190.109375 207.375 190.027344 207.375 C 189.867188 207.375 189.699219 207.535156 189.527344 207.859375 L 189.527344 210.34375 L 188.613281 210.34375 L 188.613281 206.773438 L 189.414062 206.773438 L 189.480469 207.226562 C 189.597656 207.042969 189.726562 206.902344 189.867188 206.808594 C 190.003906 206.714844 190.167969 206.667969 190.355469 206.667969 Z M 193.191406 206.667969 C 193.574219 206.667969 193.90625 206.808594 194.1875 207.089844 L 193.804688 207.601562 C 193.613281 207.449219 193.429688 207.375 193.253906 207.375 C 193.058594 207.375 192.914062 207.464844 192.816406 207.644531 C 192.722656 207.828125 192.671875 208.140625 192.671875 208.578125 C 192.671875 209.003906 192.722656 209.300781 192.820312 209.46875 C 192.921875 209.640625 193.0625 209.722656 193.253906 209.722656 C 193.347656 209.722656 193.433594 209.707031 193.515625 209.671875 C 193.597656 209.640625 193.6875 209.585938 193.785156 209.507812 L 194.1875 210.035156 C 193.902344 210.3125 193.570312 210.449219 193.199219 210.449219 C 192.726562 210.449219 192.363281 210.292969 192.101562 209.980469 C 191.839844 209.664062 191.710938 209.199219 191.710938 208.585938 C 191.710938 208.191406 191.769531 207.847656 191.890625 207.558594 C 192.015625 207.269531 192.183594 207.046875 192.40625 206.894531 C 192.628906 206.742188 192.890625 206.667969 193.191406 206.667969 Z M 197.164062 208.476562 C 197.164062 208.527344 197.160156 208.644531 197.144531 208.835938 L 195.320312 208.835938 C 195.339844 209.183594 195.398438 209.425781 195.503906 209.5625 C 195.609375 209.695312 195.757812 209.765625 195.945312 209.765625 C 196.078125 209.765625 196.199219 209.742188 196.308594 209.691406 C 196.421875 209.644531 196.542969 209.574219 196.671875 209.476562 L 197.050781 209.980469 C 196.726562 210.292969 196.339844 210.449219 195.886719 210.449219 C 195.40625 210.449219 195.039062 210.289062 194.78125 209.960938 C 194.527344 209.632812 194.398438 209.171875 194.398438 208.585938 C 194.398438 207.996094 194.519531 207.53125 194.761719 207.183594 C 195.003906 206.839844 195.351562 206.667969 195.804688 206.667969 C 196.230469 206.667969 196.566406 206.820312 196.804688 207.128906 C 197.046875 207.433594 197.164062 207.886719 197.164062 208.476562 Z M 196.277344 208.269531 L 196.277344 208.214844 C 196.277344 207.890625 196.242188 207.65625 196.167969 207.511719 C 196.097656 207.367188 195.976562 207.292969 195.8125 207.292969 C 195.660156 207.292969 195.542969 207.363281 195.464844 207.507812 C 195.386719 207.652344 195.339844 207.90625 195.320312 208.269531 Z M 196.277344 208.269531 "/>
</g>
</g>
</svg>
